<?xml version="1.0" encoding="UTF-8" standalone="no"?>
<!-- Created with Inkscape (http://www.inkscape.org/) -->

<svg
   xmlns:dc="http://purl.org/dc/elements/1.1/"
   xmlns:cc="http://creativecommons.org/ns#"
   xmlns:rdf="http://www.w3.org/1999/02/22-rdf-syntax-ns#"
   xmlns:svg="http://www.w3.org/2000/svg"
   xmlns="http://www.w3.org/2000/svg"
   xmlns:sodipodi="http://sodipodi.sourceforge.net/DTD/sodipodi-0.dtd"
   xmlns:inkscape="http://www.inkscape.org/namespaces/inkscape"
   width="1200"
   height="630"
   viewBox="0 0 317.49999 166.6875"
   version="1.1"
   id="svg8"
   inkscape:version="0.92.4 (5da689c313, 2019-01-14)"
   sodipodi:docname="1200x630.svg">
  <defs
     id="defs2">
    <clipPath
       clipPathUnits="userSpaceOnUse"
       id="clipPath20">
      <path
         d="M 0,328 H 372 V 0 H 0 Z"
         id="path18-3"
         inkscape:connector-curvature="0" />
    </clipPath>
  </defs>
  <sodipodi:namedview
     id="base"
     pagecolor="#ffffff"
     bordercolor="#666666"
     borderopacity="1.0"
     inkscape:pageopacity="0.0"
     inkscape:pageshadow="2"
     inkscape:zoom="0.35"
     inkscape:cx="-51.528813"
     inkscape:cy="182.85715"
     inkscape:document-units="mm"
     inkscape:current-layer="layer1"
     showgrid="false"
     units="px"
     inkscape:window-width="1152"
     inkscape:window-height="809"
     inkscape:window-x="0"
     inkscape:window-y="0"
     inkscape:window-maximized="1"
     showguides="false" />
  <metadata
     id="metadata5">
    <rdf:RDF>
      <cc:Work
         rdf:about="">
        <dc:format>image/svg+xml</dc:format>
        <dc:type
           rdf:resource="http://purl.org/dc/dcmitype/StillImage" />
        <dc:title />
      </cc:Work>
    </rdf:RDF>
  </metadata>
  <g
     inkscape:label="Camada 1"
     inkscape:groupmode="layer"
     id="layer1"
     transform="translate(0,-130.31248)">
    <rect
       style="fill:#28a745;fill-opacity:1;stroke:none;stroke-width:3.73460698;stroke-miterlimit:4;stroke-dasharray:none;stroke-opacity:1"
       id="rect10"
       width="317.5"
       height="166.6875"
       x="0"
       y="130.31247" />
    <g
       transform="matrix(0.34126237,0,0,-0.34126237,95.275168,269.62331)"
       id="g14"
       style="fill:#ffffff">
      <g
         id="g16"
         clip-path="url(#clipPath20)"
         style="fill:#ffffff">
        <g
           id="g22"
           transform="translate(229.2344,299.5933)"
           style="fill:#ffffff">
          <path
             d="m 0,0 c 0,-2.954 -0.547,-6.295 -1.129,-9.195 -0.08,-0.405 -0.041,-2.669 -0.445,-2.669 h -2.122 -25.153 -26.197 -6.543 c -0.746,0 -0.466,0.566 -0.516,1.293 -0.123,1.804 -0.246,3.608 -0.369,5.413 0.078,-0.867 0.157,-1.733 0.236,-2.6 0.068,-0.754 -0.078,-0.834 0.706,-0.869 1.883,-0.085 3.766,-0.171 5.649,-0.257 0,0.586 -0.149,3.725 0.121,3.726 0.745,0.003 1.491,0.005 2.237,0.007 3.637,0.012 7.275,0.023 10.912,0.035 10.116,0.032 20.232,0.064 30.348,0.095 3.352,0.011 6.704,0.021 10.056,0.032 1.069,0.004 0.78,0.169 0.811,1.346 0.037,1.386 0.072,2.772 0.108,4.158 0.031,1.187 -0.053,1.082 1.176,1.205 C -0.058,1.147 0.024,0.577 0,0 m -62.761,1.605 c 0.744,0.497 1.428,1.26 2.346,1.262 0.95,0.004 1.898,0.006 2.847,0.009 3.835,0.012 7.67,0.023 11.505,0.035 10.141,0.03 20.283,0.061 30.425,0.092 3.836,0.012 7.674,0.023 11.511,0.035 0.05,-1.76 -0.179,-3.549 -0.285,-5.304 -0.003,-0.069 -1.325,-0.026 -1.431,-0.026 h -10.148 -30.17 -7.666 -1.798 c -0.625,0 -0.258,1.503 -0.258,1.964 0,0.125 0.025,1.646 -0.021,1.646 h -1.956 c -0.332,0 -4.155,0.038 -4.155,-0.035 V -0.96 c 0,-0.178 0.191,-2.01 -0.573,-1.332 -0.195,0.172 -0.069,1.538 -0.08,1.794 -0.031,0.701 -0.061,1.402 -0.093,2.103 m -8.597,1.719 c -0.023,-0.689 0.294,-3.439 -0.439,-3.439 h -5.694 -6.501 -1.4 c -0.304,0 -1.214,-1.447 -1.441,-1.719 -0.746,2.013 -1.333,4.537 -0.86,6.706 0.133,0.611 0.808,3.715 1.348,3.732 1.747,0.055 3.494,0.11 5.243,0.166 0,-0.346 -0.024,-1.637 0.571,-1.598 1.142,0.075 2.284,0.148 3.426,0.222 1.104,0.072 0.875,0.18 0.875,1.303 0,0.127 0.154,0.073 0.268,0.073 h 6.155 27.543 29.013 7.993 c 0.179,0 0.987,0.124 1.131,0 0.273,-0.236 0,-2.335 0,-2.722 0,-0.643 0.126,-0.717 -0.519,-0.717 h -49.119 -6.981 c -0.56,0 -1.814,-1.263 -2.277,-1.588 -0.668,-0.468 -0.915,-0.419 -1.748,-0.419 z M 3.324,4.471 C 2.528,4.739 1.577,4.585 0.745,4.585 L 0.859,7.336 C 0.143,7.491 0.172,7.248 0.172,6.678 V 4.585 c -0.46,0.092 -1.433,-0.015 -1.433,0.46 v 3.379 c 0,0.547 0.339,3.038 -0.288,3.039 -1.78,0.005 -3.562,0.009 -5.345,0.013 -8.803,0.02 -17.608,0.041 -26.411,0.061 -14.347,0.032 -28.694,0.065 -43.039,0.098 0.078,0.795 0.459,1.548 -0.466,1.548 h -2.512 c -0.759,0 -1.78,0.381 -1.78,-0.49 0,-0.943 0.213,-1.05 -0.684,-1.081 -2.217,-0.075 -4.436,-0.151 -6.654,-0.227 -1.393,-0.047 -1.229,-0.286 -1.666,-1.814 -0.657,-2.285 -0.981,-4.665 -0.9,-7.044 0.082,-2.37 0.564,-4.714 1.376,-6.94 0.25,-0.684 1.185,-1.147 1.97,-1.147 h 4.437 11.291 c -0.094,-2.094 -0.19,-4.189 -0.285,-6.284 -0.003,-0.073 -4.228,-0.02 -4.506,-0.02 h -13.95 c 0.55,-1.813 1.101,-3.626 1.652,-5.439 0.373,-1.222 0.641,-3.912 1.957,-4.389 1.348,-0.487 2.922,-0.349 4.351,-0.555 1.683,-0.24 3.366,-0.482 5.049,-0.723 8.473,-1.215 16.945,-2.429 25.419,-3.644 0.852,-0.123 0.26,-6.777 0.26,-8.025 0,-3.66 -0.172,-7.233 -0.172,-10.844 0,-7.252 -0.301,-14.524 -0.401,-21.8 -0.094,-6.838 -0.287,-13.684 -0.287,-20.495 0,-3.786 -0.172,-7.451 -0.172,-11.264 0,-3.152 0.201,-6.537 -0.114,-9.685 -0.309,-3.059 -0.242,-6.388 -0.306,-9.504 -0.08,-3.8 -0.156,-7.599 -0.209,-11.401 -0.052,-3.833 -0.128,-7.666 -0.208,-11.5 -0.065,-3.199 0.08,-6.449 -0.137,-9.608 -0.221,-3.184 -0.173,-6.546 -0.173,-9.685 0,-3.783 -0.114,-7.494 -0.114,-11.265 0,-6.849 -0.364,-13.719 -0.459,-20.619 -0.098,-7.142 -0.286,-14.276 -0.286,-21.363 0,-6.786 -0.401,-13.544 -0.401,-20.306 0,-6.658 -0.286,-13.213 -0.286,-19.893 0,-0.017 -17.041,-0.046 -19.488,-0.151 h 2.579 c -1.909,-5.875 -2.591,-12.07 -4.343,-17.916 -0.15,-0.497 -0.184,-1.972 -0.385,-2.173 -0.352,-0.351 -0.144,-1.339 -0.144,-1.803 v -7.007 c 0,-0.56 0.021,-0.858 0.242,-1.373 0.119,-0.278 1.382,-0.105 1.798,-0.105 h 6.883 46.959 7.041 c 0.976,0 0.578,1.996 0.597,2.695 0.065,2.334 0.13,4.667 0.195,7 0.074,2.678 -1.241,5.105 -1.241,7.667 0,1.212 -0.572,2.764 -0.859,3.959 -0.317,1.314 -0.452,2.694 -0.746,4.012 -0.131,0.588 -0.4,1.238 -0.4,1.838 0,0.91 -0.574,1.206 -0.574,1.943 0,1.551 -1.137,1.267 -2.31,1.275 -4.669,0.03 -9.337,0.061 -14.007,0.092 -1.181,0.007 -1.731,-0.426 -1.747,0.693 -0.017,1.116 -0.032,2.233 -0.049,3.35 -0.175,11.988 -0.351,23.976 -0.526,35.964 -0.285,19.48 -0.571,38.96 -0.855,58.44 -0.306,20.918 -0.612,41.835 -0.919,62.753 -0.238,16.301 -0.476,32.604 -0.716,48.905 -0.065,4.527 -0.131,9.055 -0.197,13.583 -0.016,1.026 -0.03,2.053 -0.046,3.08 -0.012,0.875 0.699,0.597 1.542,0.715 9.063,1.267 18.124,2.534 27.188,3.801 2.499,0.349 5.055,0.525 7.469,1.279 0.689,0.215 0.72,0.876 0.935,1.466 0.283,0.78 0.441,1.63 0.603,2.441 0.309,1.557 0.616,3.174 1.072,4.69 0.143,0.474 -0.242,0.657 -0.242,1.094 0,0.448 0.058,0.903 0.114,1.347 0.107,0.861 0.203,1.733 0.332,2.59 0.273,1.827 0.525,3.682 0.709,5.519 0.096,0.959 0.278,1.896 0.278,2.858 0,0.543 -0.217,1.016 0.344,1.156 0.569,0.142 1.158,0.086 1.745,0.086 0.808,0 1.35,-0.029 1.35,0.836 0,0.42 0.024,0.809 0.074,1.228 0.071,0.61 -0.694,0.443 -1.221,0.515"
             style="fill:#ffffff;fill-opacity:1;fill-rule:evenodd;stroke:none"
             id="path24"
             inkscape:connector-curvature="0" />
        </g>
      </g>
    </g>
  </g>
</svg>
